<?xml version="1.0" encoding="UTF-8" standalone="no"?>
<svg
   width="32"
   height="32"
   viewBox="0 0 32.000001 32"
   id="error"
   version="1.1"
   sodipodi:docname="error.svg"
   inkscape:version="1.2.2 (b0a8486541, 2022-12-01)"
   xmlns:inkscape="http://www.inkscape.org/namespaces/inkscape"
   xmlns:sodipodi="http://sodipodi.sourceforge.net/DTD/sodipodi-0.dtd"
   xmlns="http://www.w3.org/2000/svg"
   xmlns:svg="http://www.w3.org/2000/svg">
  <defs
     id="defs176" />
  <sodipodi:namedview
     id="namedview174"
     pagecolor="#ffffff"
     bordercolor="#000000"
     borderopacity="0.25"
     inkscape:showpageshadow="2"
     inkscape:pageopacity="0.0"
     inkscape:pagecheckerboard="0"
     inkscape:deskcolor="#d1d1d1"
     showgrid="false"
     inkscape:zoom="6.3828125"
     inkscape:cx="-47.549572"
     inkscape:cy="14.492044"
     inkscape:window-width="1920"
     inkscape:window-height="1028"
     inkscape:window-x="0"
     inkscape:window-y="0"
     inkscape:window-maximized="1"
     inkscape:current-layer="error" />
  <path
     d="M 2.0107401,31.088311 H 29.986481 A 2.0117748,2.0117748 0 0 0 31.762878,28.12899 L 17.805184,1.9759171 A 2.0087572,2.0087572 0 0 0 16.03281,0.91168823 h -0.002 c -0.742356,0 -1.422336,0.40839027 -1.772385,1.06221707 L 0.23836649,28.126978 a 2.0157984,2.0157984 0 0 0 0.0462708,1.98361 2.0168043,2.0168043 0 0 0 1.72610281,0.977723 z m 14.0200589,-8.0471 a 2.0122781,2.0122781 0 1 1 -10e-4,4.024556 2.0122781,2.0122781 0 0 1 10e-4,-4.024556 z M 14.019024,19.04985 v -8.047099 a 2.0117748,2.0117748 0 0 1 4.023549,0 v 8.047099 a 2.0117748,2.0117748 0 0 1 -4.023549,0 z"
     id="path171"
     style="stroke-width:1.00535433;fill:#ff1010;fill-opacity:1;stroke:none;stroke-opacity:1;stroke-dasharray:none" />
</svg>
