<svg viewBox="0 0 496 496" id="root" fill="currentColor" xmlns="http://www.w3.org/2000/svg">
   <path
      d="M 248,0 C 111.033,0 0,111.033 0,248 0,384.967 111.033,496 248,496 384.967,496 496,384.967 496,248 496,111.033 384.967,0 248,0 Z m 114.952,168.66 c -3.732,39.215 -19.881,134.378 -28.1,178.3 -3.476,18.584 -10.322,24.816 -16.948,25.425 -14.4,1.326 -25.338,-9.517 -39.287,-18.661 -21.827,-14.308 -34.158,-23.215 -55.346,-37.177 -24.485,-16.135 -8.612,-25 5.342,-39.5 3.652,-3.793 67.107,-61.51 68.335,-66.746 0.153,-0.655 0.3,-3.1 -1.154,-4.384 -1.454,-1.284 -3.59,-0.849 -5.135,-0.5 q -3.283,0.746 -104.608,69.142 -14.845,10.194 -26.894,9.934 c -8.855,-0.191 -25.888,-5.006 -38.551,-9.123 -15.531,-5.048 -27.875,-7.717 -26.8,-16.291 q 0.84,-6.7 18.45,-13.7 108.446,-47.248 144.628,-62.3 c 68.872,-28.647 83.183,-33.623 92.511,-33.789 2.052,-0.034 6.639,0.474 9.61,2.885 a 10.452,10.452 0 0 1 3.53,6.716 43.765,43.765 0 0 1 0.417,9.769 z"
      id="path507" />
</svg>