<svg id="root" viewBox="0 0 128 23.573452" xmlns="http://www.w3.org/2000/svg">
   <g transform="translate(-12.352468,-11.722372)" fill="#fff">
      <g transform="matrix(1.041989,0,0,0.98860675,32.645781,-43.220607)">
         <path
            d="m -15.770925,60.912201 c 0,0 0.049,1.082403 0.08821,1.948326 0.0392,0.865923 0.0784,1.79679 0.117606,2.792601 0.0392,0.974163 0.0588,1.861733 0.0588,2.662712 v 10.780737 h -3.969245 V 55.911498 h 6.056774 l 4.9689059,8.66048 5.351134,-8.66048 h 6.0567739 v 23.185079 h -4.1456559 v -10.97557 c 0,-0.736034 0.0098,-1.580309 0.0294,-2.532824 0.0392,-0.952515 0.0686,-1.850909 0.08821,-2.695184 0.03921,-0.865923 0.06861,-1.515365 0.08821,-1.948326 h -0.117608 L -8.4498741,72.9765 Z" />
         <path
            d="m 47.25465,67.276733 q 0,5.877449 -3.344626,8.864883 -3.312154,2.954961 -9.319492,2.954961 H 28.031168 V 55.911498 h 7.27375 q 3.636875,0 6.299587,1.298884 2.695184,1.298884 4.156429,3.831707 1.493716,2.500352 1.493716,6.234644 z m -5.098119,0.129888 q 0,-3.86418 -1.688549,-5.650145 -1.688549,-1.818438 -4.903287,-1.818438 h -2.63024 v 15.099526 h 2.110686 q 7.11139,0 7.11139,-7.630943 z" />
         <path
            d="M 65.406551,79.096577 H 52.060518 V 55.911498 h 13.346033 v 4.02654 h -8.442746 v 5.09812 h 7.858248 v 4.02654 h -7.858248 v 5.974866 h 8.442746 z" />
         <path
            d="m 83.915628,72.667101 q 0,3.084849 -2.240574,4.935759 -2.208103,1.818438 -6.299588,1.818438 -3.669347,0 -6.559364,-1.396301 v -4.578566 q 1.656077,0.714387 3.409571,1.331356 1.785965,0.584498 3.539459,0.584498 1.818437,0 2.565295,-0.681914 0.779331,-0.714386 0.779331,-1.785965 0,-0.876747 -0.61697,-1.493717 -0.584498,-0.61697 -1.591133,-1.136523 -1.006635,-0.552026 -2.305519,-1.168996 -0.811803,-0.389665 -1.753493,-0.909219 -0.941691,-0.552025 -1.818438,-1.331356 -0.844275,-0.811802 -1.3963,-1.948326 -0.552026,-1.136523 -0.552026,-2.727656 0,-3.117322 2.110687,-4.838343 2.110686,-1.753493 5.747561,-1.753493 1.818438,0 3.442043,0.422137 1.656077,0.422137 3.442042,1.201468 l -1.591133,3.831707 q -1.591133,-0.649442 -2.857544,-1.006635 -1.266412,-0.357193 -2.597768,-0.357193 -1.396301,0 -2.143159,0.649442 -0.746858,0.649442 -0.746858,1.688549 0,1.23394 1.104051,1.948326 1.104052,0.714387 3.279682,1.753494 1.785966,0.844274 3.019905,1.753493 1.266412,0.909219 1.948326,2.143159 0.681914,1.233939 0.681914,3.052377 z" />
         <path
            d="M 97.066845,79.096577 H 92.163558 V 60.002982 h -6.299587 v -4.091484 h 17.502459 v 4.091484 h -6.299585 z" />
         <path
            d="m 15.433594,55.576172 c -5.253241,0 -9.4414065,4.490602 -9.4414065,9.830078 0,5.339476 4.1881655,9.828125 9.4414065,9.828125 5.25324,0 9.439453,-4.488649 9.439453,-9.828125 0,-5.339476 -4.186213,-9.830078 -9.439453,-9.830078 z m 0,4.505859 c 2.686524,0 4.933593,2.295204 4.933593,5.324219 0,3.029015 -2.247069,5.322266 -4.933593,5.322266 -2.686524,0 -4.935547,-2.293251 -4.935547,-5.322266 0,-3.029015 2.249023,-5.324219 4.935547,-5.324219 z" />
         <path d="m 5.9921875,77.125 v 1.970703 H 24.873047 V 77.125 Z" />
      </g>
   </g>
</svg>