<svg viewBox="0 0 19 16" fill="currentColor" id="root" xmlns="http://www.w3.org/2000/svg">
    <path fill-rule="evenodd" clip-rule="evenodd"
        d="M0.424126 0C0.189886 0 0 0.188514 0 0.421053C0 0.653592 0.189886 0.842105 0.424126 0.842105H1.55481C2.14912 0.842105 2.66427 1.25054 2.7957 1.82594L4.88918 10.9919C5.10821 11.9509 5.96682 12.6316 6.95735 12.6316H15.4109C15.7909 12.6316 16.1245 12.3807 16.2274 12.0175L17.3658 8H8.05848C7.82593 8 7.63743 7.81149 7.63743 7.57895C7.63743 7.3464 7.82593 7.15789 8.05848 7.15789H17.6043L18.4941 4.01752C18.6463 3.48029 18.2397 2.94737 17.6776 2.94737H3.9216L3.62295 1.63973C3.40391 0.680728 2.54533 0 1.55481 0H0.424126ZM8 15.1579C8 15.623 7.62299 16 7.15789 16C6.6928 16 6.31579 15.623 6.31579 15.1579C6.31579 14.6928 6.6928 14.3158 7.15789 14.3158C7.62299 14.3158 8 14.6928 8 15.1579ZM13.8947 16C14.3598 16 14.7368 15.623 14.7368 15.1579C14.7368 14.6928 14.3598 14.3158 13.8947 14.3158C13.4296 14.3158 13.0526 14.6928 13.0526 15.1579C13.0526 15.623 13.4296 16 13.8947 16Z" />
</svg>