<svg viewBox="0 0 496 496" id="root" fill="currentColor" xmlns="http://www.w3.org/2000/svg">
   <path
      d="M 248,0 C 111.252,0 0,111.252 0,248 0,384.748 111.252,496 248,496 384.748,496 496,384.748 496,248 496,111.252 384.748,0 248,0 Z m 163.97,114.366 c 29.503,36.046 47.369,81.957 47.835,131.955 -6.984,-1.477 -77.018,-15.682 -147.502,-6.818 -5.752,-14.041 -11.181,-26.393 -18.617,-41.614 78.321,-31.977 113.818,-77.482 118.284,-83.523 z M 388.421,89.87 C 384.611,95.297 352.724,138.156 277.4,166.389 242.688,102.613 204.215,50.221 198.36,42.381 265.536,26.188 336.326,43.651 388.421,89.87 Z M 157.941,56.62 c 5.585,7.659 43.438,60.116 78.537,122.509 C 137.391,205.442 50.118,205.063 40.644,204.938 54.38,139.205 98.678,84.573 157.941,56.62 Z M 36.17,248.323 c 0,-2.166 0.043,-4.322 0.108,-6.473 9.268,0.19 111.92,1.513 217.706,-30.146 6.064,11.868 11.857,23.915 17.174,35.949 C 194.559,269.228 124.964,331.18 90.627,389.959 56.794,352.405 36.17,302.73 36.17,248.323 Z m 81.807,167.113 c 22.127,-45.233 82.178,-103.622 167.579,-132.756 29.74,77.283 42.039,142.053 45.189,160.638 -68.112,29.013 -150.015,21.053 -212.768,-27.882 z m 248.38,8.489 c -2.171,-12.886 -13.446,-74.897 -41.152,-151.033 66.38,-10.626 124.7,6.768 131.947,9.055 -9.442,58.941 -43.273,109.844 -90.795,141.978 z"
      id="path132" />
</svg>