<svg viewBox="0 0 13 16" fill="currentColor" id="root" xmlns="http://www.w3.org/2000/svg">
    <path
        d="M2.58553 4.66184C2.58553 2.58121 4.235 0.894531 6.26974 0.894531C8.30447 0.894531 9.95395 2.58121 9.95395 4.66184C9.95395 6.74247 8.30447 8.42916 6.26974 8.42916C4.235 8.42916 2.58553 6.74247 2.58553 4.66184ZM6.26974 6.92223C7.49058 6.92223 8.48026 5.91022 8.48026 4.66184C8.48026 3.41347 7.49058 2.40146 6.26974 2.40146C5.0489 2.40146 4.05921 3.41347 4.05921 4.66184C4.05921 5.91022 5.0489 6.92223 6.26974 6.92223Z" />
    <path
        d="M2.10153 10.9481C0.996051 12.0785 0.375 13.6117 0.375 15.2103H1.84868C1.84868 14.0113 2.31447 12.8615 3.14358 12.0136C3.97269 11.1658 5.0972 10.6895 6.26974 10.6895C7.44227 10.6895 8.56679 11.1658 9.39589 12.0136C10.225 12.8615 10.6908 14.0113 10.6908 15.2103H12.1645C12.1645 13.6117 11.5434 12.0785 10.4379 10.9481C9.33247 9.81768 7.83312 9.18262 6.26974 9.18262C4.70636 9.18262 3.20701 9.81768 2.10153 10.9481Z" />
</svg>