<svg viewBox="0 0 24 22.736843" fill="currentColor" id="root" xmlns="http://www.w3.org/2000/svg">
   <ellipse cx="8.8421049" cy="18.31579" rx="8.8421049" ry="4.4210525" style="stroke-width:1.68421" />
   <circle cx="8.8421049" cy="5.0526314" r="5.0526314" style="stroke-width:1.68421" />
   <path fill-rule="evenodd" clip-rule="evenodd"
      d="m 14.536253,10.053726 c 1.173221,-1.334635 1.8848,-3.0851702 1.8848,-5.001886 0,-0.8487579 -0.139621,-1.6649263 -0.396969,-2.4268463 1.675453,0.3917979 2.923284,1.8951916 2.923284,3.6900042 0,2.0928671 -1.696673,3.7894741 -3.789473,3.7894741 -0.211706,0 -0.419369,-0.01736 -0.621642,-0.05075 z"
      style="stroke-width:1.68421" />
   <path fill-rule="evenodd" clip-rule="evenodd"
      d="m 19.335411,20.992337 c 0.563705,-0.824084 0.875115,-1.728842 0.875115,-2.677895 0,-0.09044 -0.0029,-0.180547 -0.0084,-0.270147 0.500884,-0.225348 0.844969,-0.458948 1.052632,-0.663579 0.111831,-0.110148 0.167747,-0.195705 0.194358,-0.249769 0.02425,-0.04951 0.02459,-0.07293 0.02459,-0.07966 0,-0.0066 -3.37e-4,-0.03015 -0.02459,-0.07949 -0.02661,-0.05406 -0.08253,-0.139789 -0.194358,-0.249768 -0.230569,-0.2272 -0.629053,-0.489937 -1.223579,-0.737684 C 19.84,15.904674 19.634526,15.829053 19.416421,15.758484 18.5952,14.490611 17.181137,13.405811 15.383074,12.631579 c 2.132547,0.02429 4.11301,0.39296 5.619873,1.0208 0.777095,0.323874 1.488337,0.741558 2.024758,1.269895 C 23.568505,15.455158 24,16.175326 24,17.051284 c 0,0.876127 -0.431495,1.596295 -0.972295,2.129179 -0.536421,0.528337 -1.247663,0.946021 -2.024758,1.269895 -0.506442,0.211031 -1.066442,0.392758 -1.667536,0.541979 z"
      style="stroke-width:1.68421" />
</svg>